<?xml version="1.0" encoding="UTF-8"?>
<svg width="421px" height="497px" viewBox="0 0 421 497" version="1.1" xmlns="http://www.w3.org/2000/svg" xmlns:xlink="http://www.w3.org/1999/xlink">
    <title>varnish</title>
    <defs>
        <polygon id="path-1" points="0 0 281 0 281 374 0 374"></polygon>
    </defs>
    <g id="Page-1" stroke="none" stroke-width="1" fill="none" fill-rule="evenodd">
        <g id="varnish" transform="translate(0.000000, 0.000000)">
            <g id="Group" transform="translate(0.000000, -0.000000)" fill-rule="nonzero">
                <g transform="translate(0.000000, -0.000000)" fill="#333F4C" id="Path">
                    <path d="M270.7,91.6564469 L196,2.65644685 C194.2,0.656446854 191.7,-0.243553146 189.1,0.0564468545 L29.6,0.0564468545 C13.3,0.0564468545 -5.32907052e-15,13.3564469 -5.32907052e-15,29.6564469 L-5.32907052e-15,320.356447 C-5.32907052e-15,336.656447 13.3,349.956447 29.6,349.956447 L243.6,349.956447 C259.9,349.956447 273.2,336.656447 273.2,320.356447 L273.2,97.8564469 C273.2,97.6564469 273.3,97.4564469 273.3,97.2564469 C273.4,95.0564469 272.3,92.9564469 270.7,91.6564469 Z"></path>
                </g>
                <g transform="translate(75.158881, 70.525280)" fill="#FEC136" id="Path">
                    <path d="M122.007251,74.104345 C120.901216,72.113482 118.689146,70.78624 116.255869,70.78624 L82.4111981,70.78624 L102.762242,8.627073 C103.425863,6.63621 102.983449,4.42414 101.877414,2.654484 C100.771379,0.884828 98.5593091,-1.79630888e-14 96.5684461,-1.79630888e-14 L43.0047511,-1.79630888e-14 C40.1290601,-1.79630888e-14 37.6957831,1.769656 36.8109551,4.645347 L0.311800107,115.280448 C-0.351820893,117.271311 0.0905931067,119.483381 1.19662811,121.253037 C2.52387011,123.022693 4.51473311,123.907521 6.50559611,123.907521 L46.3228561,123.907521 L41.2350951,201.772385 C41.0138881,204.869283 43.0047511,207.744974 46.1016491,208.629802 C46.7652701,208.851009 47.4288911,208.851009 47.8713051,208.851009 C50.3045821,208.851009 52.5166521,207.523767 53.6226871,205.311697 L122.196857,80.519348 C123.334493,78.528485 123.334493,76.095208 122.007251,74.104345 Z"></path>
                </g>
            </g>
            <g id="Group-12" transform="translate(146.000000, 141.000000)">
                <mask id="mask-2" fill="white">
                    <use xlink:href="#path-1"></use>
                </mask>
                <g id="Clip-8"></g>
                <g id="Group-2" mask="url(#mask-2)" fill="#2C69A4">
                    <path d="M107.867308,115.807082 C124.019023,160.685465 173.397994,183.927694 218.113847,167.71416 C262.856771,151.493835 286.009932,101.970401 269.854833,57.0818317 C253.686198,12.1966576 204.334298,-11.0489663 159.591374,5.16117224 C114.868753,21.3781018 91.7088246,70.9185126 107.867308,115.807082" id="Fill-9"></path>
                    <path d="M38.2826189,262.879964 C21.386429,292.882642 31.9241288,330.953039 61.8181687,347.906793 C91.7223605,364.874129 129.67703,354.293737 146.576604,324.294455 C163.466026,294.28159 152.935094,256.217985 123.027518,239.25744 C93.1300943,222.30029 55.1754247,232.873891 38.2826189,262.879964" id="Fill-10"></path>
                    <path d="M0.717106446,154.913108 C-3.21168915,174.467818 9.39700369,193.526785 28.8887028,197.475757 C48.3770179,201.424728 67.3746565,188.773079 71.2966842,169.218368 C75.2457836,149.653471 62.6303228,130.594504 43.1352398,126.648928 C23.6435407,122.693165 4.65266999,135.355002 0.717106446,154.913108" id="Fill-11"></path>
                </g>
            </g>
        </g>
    </g>
</svg>