<svg clip-rule="evenodd" fill-rule="evenodd" stroke-linejoin="round" stroke-miterlimit="2" viewBox="0 0 209 209" xmlns="http://www.w3.org/2000/svg"><path d="m185.523 57.672c-.014-1.574-.957-2.343-1.69-3.256 0 0-35.983-43.288-43.639-52.031-.393-.449-.416-.454-1.27-1.317-.568-.574-1.374-1.068-2.015-1.068-58.476 0-65.607-.001-98.316-.002-8.716 0-15.792 7.077-15.792 15.792v176.75c0 8.716 7.076 15.792 15.792 15.792h131.146c8.715 0 15.792-7.076 15.792-15.792z" fill="#333f4c"/><g fill-rule="nonzero"><path d="m108.767 84.815c4.56 12.626 18.501 19.166 31.127 14.603 12.631-4.562 19.166-18.498 14.607-31.126-4.564-12.631-18.5-19.172-31.131-14.608-12.626 4.562-19.165 18.5-14.603 31.131z" fill="#fff"/><path d="m77.82 129.898c-4.771 8.443-1.794 19.155 6.646 23.923 8.441 4.778 19.158 1.797 23.927-6.644 4.771-8.444 1.796-19.154-6.648-23.926-8.44-4.769-19.154-1.796-23.925 6.647z" fill="#fff"/><path d="m52.581 95.817c-1.107 5.504 2.452 10.864 7.954 11.975 5.504 1.11 10.867-2.448 11.976-7.949 1.111-5.503-2.449-10.868-7.951-11.979-5.505-1.113-10.867 2.449-11.979 7.953z" fill="#fff"/><path d="m175.736 165.695c-.265-.477-.794-.794-1.377-.794h-8.102l4.872-14.881c.159-.477.053-1.006-.212-1.43s-.794-.636-1.271-.636h-12.816c-.688 0-1.271.424-1.482 1.113l-8.738 26.478c-.159.477-.053 1.006.211 1.43.318.424.795.635 1.271.635h9.533l-1.218 18.641c-.053.742.423 1.43 1.165 1.642.159.053.318.053.423.053.583 0 1.113-.318 1.377-.847l16.417-29.868c.265-.477.265-1.059-.053-1.536z" fill="#fec136"/></g></svg>